<svg width="450" height="854" viewBox="0 0 450 854" fill="none" xmlns="http://www.w3.org/2000/svg">
<mask id="mask0_239_1934" style="mask-type:luminance" maskUnits="userSpaceOnUse" x="0" y="0" width="450" height="854">
<path d="M450 0H0V854H450V0Z" fill="white"/>
</mask>
<g mask="url(#mask0_239_1934)">
<path d="M-89.8237 259.679C-71.3779 268.7 -36.8237 311.054 94.3847 335.358C135.689 343.008 176.985 317.258 215.118 300.288C218.16 300.163 219.697 303.971 217.472 305.779C216.222 306.796 210.726 309.383 208.847 310.325C198.897 315.313 185.297 319.771 176.272 325.554C175.73 325.9 175.351 325.458 175.739 326.679L220.422 326.533C220.401 326.679 220.493 326.85 220.497 327.025C220.51 328.704 221.097 331.146 221.38 332.921C221.397 333.017 220.939 333.358 220.964 333.488L208.797 334.283C189.33 337.529 169.451 337.946 149.889 340.079C144.993 340.613 141.172 342.388 136.655 344.092L169.647 354.121L200.022 364.746L200.097 365.238L198.939 370.938C198.797 370.896 198.593 371.054 198.447 371.013C194.139 369.75 188.61 368.6 184.143 367.608C182.701 367.288 172.38 364.942 171.997 365.425L185.818 383.95C183.176 384.279 183.014 384.921 181.126 386.158C180.843 386.346 179.947 386.192 179.651 386.379C171.818 377.479 163.326 369.396 152.585 364.192C150.051 362.963 146.605 361.483 143.976 360.471C118.655 350.733 91.0722 352.454 64.7221 356.858L89.1805 379.317C89.1805 379.479 89.2638 379.646 89.2555 379.808C89.1597 381.254 85.8221 383.467 86.0596 385.308C85.9055 385.213 85.2346 385.55 85.0763 385.454C71.943 377.329 60.1805 366 45.2971 361.267C48.4513 372.542 50.4638 385.167 55.343 395.821C61.818 409.967 73.8763 422.392 82.0346 435.642C82.1138 435.771 82.0305 436.004 82.1096 436.133C80.2221 436.117 78.4388 438.9 77.5638 439.325C77.218 439.492 76.5221 439.404 76.0888 439.546L56.5013 419.179L54.9471 419.096L57.793 478.45C57.5346 478.4 57.118 478.621 56.8097 478.596C54.8472 478.433 52.7638 478.525 50.8388 478.988L44.418 432.729C41.8555 435.95 40.193 440.513 38.6138 444.383C34.1596 455.313 30.5888 466.629 26.2305 477.608C24.2471 481.808 19.8096 480.525 19.7555 475.892C19.743 475.004 20.2055 473.796 20.4346 472.883C26.7763 447.742 42.5096 421.013 35.7221 394.575C13.1763 306.779 -77.3695 291.783 -109.645 283.817C-109.645 283.817 -90.6445 259.275 -89.8195 259.679H-89.8237Z" fill="#914F2B"/>
<path d="M62.252 328.629C76.9853 328.921 90.5353 323.379 90.5353 323.379L94.1811 326.871C94.1811 326.871 87.6895 330.654 75.0145 335.859C62.3353 341.063 62.2561 328.634 62.2561 328.634L62.252 328.629Z" fill="#914F2B"/>
<path d="M50.3465 479.058L56.5881 540.913C57.7006 540.929 57.6881 540.288 57.8465 539.446C58.4631 536.121 57.8131 528.854 57.8506 525.029C57.9923 510.742 58.0381 496.117 57.2798 481.775C57.2214 480.704 56.9256 479.654 56.809 478.592C57.1131 478.617 57.534 478.396 57.7923 478.446C61.4923 479.142 70.0673 487.55 72.5798 490.65C91.6256 514.142 87.5298 545.083 69.1006 567.433C67.8131 568.996 60.2089 577.229 58.8173 577.171C57.6423 577.121 49.5548 569.817 48.234 568.454C29.0548 548.654 20.459 519.721 35.1173 494.663C37.7256 490.204 45.4298 480.633 50.3506 479.058H50.3465Z" fill="#ABDA38"/>
<path d="M76.08 439.546C76.5133 439.404 77.2092 439.496 77.555 439.325C86.7508 455.262 95.3758 471.625 105.355 487.096C105.597 487.467 107.638 490.983 108.238 489.988C100.301 471.717 92.4216 453.142 82.1008 436.133C82.0216 436.004 82.1091 435.771 82.0258 435.642C88.7925 435.233 95.3425 437.071 101.409 439.858C127.505 451.85 136.301 479.779 130.58 506.733C130.005 509.433 126.072 522.787 124.38 524.033C123.722 524.517 119.142 522.971 117.967 522.621C82.005 511.9 60.9175 478.625 75.555 441.996C75.8842 441.171 76.4008 440.55 76.08 439.546Z" fill="#289649"/>
<path d="M220.426 326.529C220.776 323.858 227.251 314.237 229.28 311.887C248.197 289.971 279.876 289.887 303.093 304.867C304.776 305.954 313.797 312.975 314.03 314.275C314.547 317.137 304.497 329.679 302.105 332.125C283.268 351.387 253.268 357.083 230.038 342.183C227.955 340.846 221.376 335.725 220.963 333.479C220.938 333.354 221.397 333.012 221.38 332.912C230.184 330.983 239.197 329.842 248.005 327.921C257.401 325.875 266.643 322.779 276.134 321.2L281.118 319.208C279.751 319.25 278.168 318.983 276.822 319.096C260.847 320.433 245.851 322.646 230.101 325.596C226.93 326.192 223.668 326.429 220.497 327.012C220.497 326.842 220.405 326.667 220.422 326.521L220.426 326.529Z" fill="#ABDA38"/>
<path d="M200.019 364.746C203.273 363.087 205.977 360.725 209.344 359.192C217.169 355.625 225.731 354.292 234.289 354.746C262.21 356.229 280.098 381.308 282.71 407.567C267.489 414.396 248.089 417.108 231.914 412.296C224.919 410.217 220.139 406.821 214.248 402.804C211.435 400.883 209.794 397.879 207.102 395.333C207.927 394.875 206.952 393.783 206.664 393.271C202.773 386.287 199.102 379.2 198.439 371.012C198.585 371.054 198.785 370.896 198.931 370.937C204.144 372.5 209.885 375.892 215.169 377.638L252.669 391.029C253.119 390.442 251.031 389.129 250.573 388.846C240.177 382.358 227.381 376.496 216.077 371.683C210.789 369.433 205.339 367.563 200.085 365.242L200.01 364.75L200.019 364.746Z" fill="#AADA38"/>
<path d="M207.105 395.333C209.797 397.879 211.434 400.883 214.251 402.804C215.655 406.921 218.288 410.404 219.797 414.504C226.597 432.979 221.63 456.429 210.322 472.217C209.072 473.958 206.468 477.775 204.293 477.425C202.422 477.125 193.988 471.208 192.093 469.675C183.172 462.471 174.738 451.871 171.222 440.888C172.759 439.217 179.493 438.592 179.593 436.375C179.697 434.1 176.043 422.888 175.018 420.1C173.818 416.842 168.968 408.638 169.026 406.05C169.043 405.3 172.055 397.513 172.618 396.35C173.288 394.963 178.788 386.921 179.647 386.379C179.938 386.192 180.834 386.346 181.122 386.158L191.93 424.417L195.805 436.308L198.634 442.808C196.001 422.871 191.326 403.325 186.309 383.871C192.063 383.717 202.938 391.383 207.109 395.325L207.105 395.333Z" fill="#289649"/>
<path d="M56.8063 478.596C56.9229 479.654 57.2188 480.709 57.2771 481.779C58.0354 496.117 57.9896 510.746 57.8479 525.034C57.8104 528.859 58.4604 536.125 57.8437 539.45C57.6896 540.292 57.6979 540.938 56.5854 540.917L50.3438 479.063C50.4979 479.013 50.6771 479.029 50.8354 478.988C52.7604 478.525 54.8438 478.438 56.8063 478.596Z" fill="#6EBD2F"/>
<path d="M169.027 406.05C168.973 408.637 173.819 416.842 175.019 420.1C176.044 422.887 179.698 434.1 179.594 436.375C179.489 438.587 172.76 439.217 171.223 440.887C156.252 444.133 140.677 445.475 125.794 441.158C102.339 434.358 85.4561 409.608 85.0686 385.454C85.2228 385.55 85.8936 385.212 86.052 385.308C102.127 395.2 118.498 404.775 135.314 413.521C136.502 413.683 143.673 417.875 144.081 417.317C144.535 416.704 143.164 416.058 142.806 415.8C134.835 410.054 126.814 403.729 118.635 398.262C109.027 391.842 98.6353 386.517 89.2436 379.808C89.2561 379.65 89.1686 379.479 89.1686 379.317C110.073 369.425 138.01 372.6 154.881 388.837C159.764 393.537 163.335 399.2 167.156 404.729C167.677 405.483 167.739 406.329 169.019 406.05H169.027Z" fill="#AADA38"/>
<path d="M89.2489 379.808C98.6406 386.516 109.032 391.841 118.641 398.262C126.82 403.725 134.841 410.054 142.811 415.8C143.17 416.058 144.541 416.704 144.086 417.316C143.674 417.875 136.507 413.683 135.32 413.521C118.503 404.775 102.132 395.204 86.0573 385.308C85.8198 383.466 89.1573 381.254 89.2531 379.808H89.2489Z" fill="#6EBD2F"/>
<path d="M220.496 327.021C223.667 326.438 226.929 326.2 230.1 325.604C245.85 322.654 260.85 320.438 276.821 319.104C278.167 318.992 279.746 319.254 281.117 319.217L276.134 321.209C266.642 322.784 257.4 325.879 248.004 327.929C239.196 329.85 230.184 330.992 221.379 332.921C221.1 331.146 220.513 328.704 220.496 327.025V327.021Z" fill="#6EBD2F"/>
<path d="M200.094 365.238C205.348 367.558 210.798 369.429 216.085 371.679C227.389 376.492 240.185 382.354 250.581 388.842C251.035 389.125 253.123 390.442 252.677 391.025L215.177 377.633C209.894 375.892 204.152 372.496 198.939 370.933L200.098 365.233L200.094 365.238Z" fill="#6EBD2F"/>
<path d="M82.1005 436.133C92.4213 453.142 100.301 471.717 108.238 489.988C107.638 490.983 105.596 487.467 105.355 487.096C95.3755 471.625 86.7505 455.263 77.5547 439.325C78.4297 438.9 80.213 436.117 82.1005 436.133Z" fill="#036134"/>
<path d="M185.813 383.95C185.976 383.929 186.142 383.879 186.305 383.875C191.321 403.329 195.996 422.871 198.63 442.812L195.801 436.312L191.926 424.421L181.117 386.162C183.005 384.925 183.171 384.283 185.809 383.954L185.813 383.95Z" fill="#036134"/>
<path d="M92.5873 328.734C96.4498 324.059 101.416 320.354 105.771 316.117C115.441 306.713 124.587 296.713 133.487 286.575C132.616 285.829 132.787 286.475 132.271 286.875C124.958 292.575 117.458 298.904 110.45 304.992C103.108 311.367 95.9831 318.054 88.9206 324.734C88.7831 324.517 87.9748 324.317 87.8873 324.129C87.8664 324.079 88.1581 323.525 88.054 323.079C84.3998 307.188 92.2623 288.442 103.837 277.421C117.904 264.029 139.529 259.934 158.233 262.75C159.421 263.929 157.958 277.292 157.571 279.563C154.1 299.875 142.7 319.388 122.983 327.35C115.141 330.517 100.166 333.138 92.5831 328.734H92.5873Z" fill="#279649"/>
<path d="M88.9202 324.734C95.9827 318.055 103.108 311.367 110.449 304.992C117.458 298.909 124.958 292.575 132.27 286.875C132.787 286.475 132.616 285.83 133.487 286.576C124.587 296.713 115.441 306.713 105.77 316.117C101.416 320.351 96.4493 324.055 92.5868 328.734C92.4743 328.667 92.3535 328.605 92.241 328.534C90.241 327.205 90.066 326.55 88.916 324.734H88.9202Z" fill="#036134"/>
<path d="M146.024 453.204C148.499 458.862 152.332 463.875 155.416 469.237C162.261 481.146 168.428 493.492 174.316 505.904C173.253 506.392 173.599 505.808 173.207 505.271C167.636 497.65 162.057 489.354 156.891 481.442C151.482 473.15 146.37 464.612 141.316 456.1C141.12 456.275 140.274 456.246 140.136 456.404C140.103 456.446 140.232 457.071 140.007 457.479C131.995 472.021 134.466 492.575 142.724 506.6C152.761 523.642 172.799 533.687 191.903 536.15C193.395 535.329 195.695 521.833 195.949 519.5C198.216 498.637 192.499 476.346 175.411 463.046C168.616 457.758 154.682 451.012 146.024 453.208V453.204Z" fill="#AADA38"/>
<path d="M141.316 456.096C146.371 464.608 151.483 473.15 156.891 481.437C162.054 489.35 167.637 497.646 173.208 505.266C173.6 505.804 173.254 506.387 174.316 505.9C168.429 493.487 162.262 481.141 155.416 469.233C152.333 463.871 148.504 458.858 146.025 453.2C145.896 453.233 145.758 453.262 145.633 453.3C143.304 454.041 142.95 454.633 141.316 456.091V456.096Z" fill="#6EBD2F"/>
<path d="M245.9 523.125C242.021 524.763 238.571 527.325 234.888 529.375C226.709 533.929 218.242 538.021 209.73 541.917C209.405 541.188 209.8 541.429 210.171 541.167C215.413 537.442 221.117 533.713 226.559 530.267C232.259 526.654 238.121 523.25 243.967 519.888C243.85 519.754 243.88 519.175 243.771 519.079C243.742 519.054 243.317 519.138 243.038 518.983C233.2 513.392 219.175 514.883 209.546 520.388C197.842 527.071 190.817 540.633 188.963 553.625C189.509 554.65 198.684 556.338 200.271 556.533C214.467 558.271 229.709 554.579 238.925 543.054C242.592 538.475 247.313 529.038 245.896 523.121L245.9 523.125Z" fill="#279649"/>
<path d="M243.971 519.892C238.125 523.258 232.259 526.662 226.563 530.271C221.121 533.717 215.421 537.442 210.175 541.171C209.804 541.433 209.409 541.192 209.734 541.921C218.246 538.025 226.713 533.933 234.892 529.379C238.575 527.329 242.025 524.762 245.904 523.129C245.884 523.042 245.867 522.946 245.838 522.858C245.354 521.262 244.954 521.017 243.975 519.892H243.971Z" fill="#036134"/>
<path d="M383.797 388.004C383.701 383.488 382.51 379.025 381.926 374.533C380.622 364.567 379.901 354.492 379.385 344.45C380.239 344.417 379.843 344.717 379.956 345.188C381.597 351.9 383.051 359.067 384.335 365.867C385.676 372.988 386.751 380.192 387.789 387.358C387.972 387.296 388.535 387.554 388.672 387.484C388.706 387.467 388.793 387.004 389.06 386.792C398.543 379.192 402.614 364.6 400.943 352.808C398.914 338.475 388.164 326.083 375.931 319.083C374.693 319.225 369.368 327.708 368.543 329.217C361.181 342.696 358.822 359.371 366.664 373.142C369.785 378.617 377.326 387.075 383.793 388.004H383.797Z" fill="#AADA38"/>
<path d="M387.793 387.363C386.751 380.192 385.68 372.988 384.339 365.871C383.055 359.075 381.601 351.904 379.96 345.192C379.843 344.717 380.243 344.421 379.389 344.454C379.905 354.496 380.626 364.567 381.93 374.538C382.518 379.025 383.709 383.488 383.801 388.008C383.897 388.021 383.997 388.042 384.097 388.05C385.88 388.2 386.284 387.896 387.797 387.367L387.793 387.363Z" fill="#6EBD2F"/>
<path d="M385.13 503.875C381.972 507.104 379.618 511.083 376.826 514.642C370.622 522.55 363.935 530.121 357.126 537.517C356.505 536.929 356.997 537.004 357.251 536.592C360.897 530.721 364.993 524.663 368.947 518.988C373.089 513.042 377.485 507.233 381.876 501.471C381.705 501.388 381.493 500.804 381.347 500.754C381.31 500.742 380.918 501.004 380.58 500.963C368.514 499.513 355.247 506.821 347.993 516.271C339.18 527.754 337.86 544.104 341.422 557.742C342.389 558.529 352.176 556.388 353.83 555.921C368.61 551.742 382.168 541.75 386.51 526.508C388.235 520.45 388.993 509.142 385.13 503.871V503.875Z" fill="#AADA38"/>
<path d="M381.876 501.475C377.484 507.238 373.093 513.046 368.947 518.992C364.993 524.667 360.893 530.725 357.251 536.596C356.993 537.008 356.501 536.933 357.126 537.521C363.934 530.125 370.622 522.554 376.826 514.646C379.618 511.083 381.972 507.108 385.13 503.879C385.072 503.8 385.018 503.717 384.955 503.642C383.814 502.263 383.314 502.188 381.876 501.479V501.475Z" fill="#6EBD2F"/>
<path d="M542.864 539.921C463.193 518.488 403.647 486.354 378.739 424.521C373.968 412.675 371.447 400.021 367.08 388.017C364.418 386.363 361.222 387.8 361.951 391.225L371.184 427.658L372.476 435.704C368.68 431.683 365.014 427.496 361.551 423.188C355.334 415.463 348.243 406.263 342.664 398.117C341.418 399.383 339.514 400.788 337.826 401.367C337.693 401.413 337.618 401.646 337.501 401.667C350.993 423.596 364.376 445.946 381.605 465.238L339.284 450.021C339.234 450.246 338.405 450.65 338.305 450.921C337.489 453.163 337.455 453.913 335.597 455.825C336.118 456.525 336.826 456.925 337.568 457.342C345.493 461.792 354.801 466.013 363.076 469.971C369.447 473.017 375.905 476.008 382.476 478.604C382.989 478.954 383.018 479.242 382.439 479.521C380.934 480.25 376.968 481.2 375.139 481.663C346.789 488.871 321.064 485.842 292.476 482.896L291.826 483.496C292.155 485.279 291.793 487.092 291.297 488.804C291.472 488.842 291.722 489.421 291.897 489.454C306.018 492.4 320.276 495.454 334.597 497.217C335.068 497.275 338.539 496.888 337.797 497.767L320.818 510.392C321.034 510.563 321.209 510.842 321.418 511.042C322.614 512.179 323.576 513.508 324.393 514.925C324.589 515.263 325.197 515.629 325.293 515.904C341.03 506.283 359.676 499.917 378.23 497.871C412.439 494.1 470.168 524.992 523.639 557.621C530.034 551.717 536.472 545.821 542.859 539.913L542.864 539.921Z" fill="#914F2B"/>
<path d="M291.893 489.467C291.718 489.429 291.468 488.85 291.293 488.817C289.31 488.404 284.826 488.846 282.368 488.617C270.997 487.562 259.676 486.175 248.355 484.687C247.03 484.042 231.951 482.2 232.035 481.371C232.097 480.754 233.272 480.687 233.785 480.629C237.189 480.254 242.889 481.121 246.614 481.2C261.693 481.517 276.76 482.267 291.822 483.508L292.472 482.908C290.226 480.579 288.993 477.508 286.989 475.004C278.56 464.454 264.214 456.317 250.835 454.696C230.701 452.262 209.564 463.158 196.23 477.867C206.097 494.108 226.301 508.437 245.322 510.821C260.218 512.687 277.189 505.625 287.426 494.771C288.964 493.142 289.855 490.771 291.885 489.467H291.893Z" fill="#AADA38"/>
<path d="M320.818 510.404C315.797 506.438 303.609 505.279 297.334 505.888C272.864 508.267 254.522 527.083 248.284 550.225C247.768 552.146 245.759 562.904 246.672 563.938C248.193 565.658 262.355 568.254 265.297 568.496C293.659 570.813 321.297 552.717 325.034 523.35C325.18 522.217 325.526 516.575 325.293 515.917C325.197 515.646 324.589 515.279 324.393 514.937C309.364 526.021 293.718 535.942 277.539 545.179L274.514 546.442C284.447 537.913 294.809 529.854 305.143 521.896L321.418 511.054C321.209 510.854 321.034 510.575 320.818 510.404Z" fill="#289649"/>
<path d="M335.268 456.134C329.976 451.971 323.709 449.125 317.988 445.559C305.28 437.638 292.993 428.946 280.947 420.05C281.713 419.034 281.684 419.775 282.338 420.088C291.618 424.542 301.251 429.642 310.288 434.592C319.755 439.775 329.068 445.35 338.305 450.929C338.405 450.659 339.234 450.254 339.284 450.029C339.297 449.971 338.847 449.438 338.855 448.929C339.072 430.825 326.113 412.346 310.955 403.121C292.534 391.913 268.105 392.575 248.476 400.042C247.468 401.6 252.205 415.754 253.163 418.129C261.726 439.346 278.697 457.829 301.968 461.813C311.222 463.396 328.088 462.704 335.276 456.138L335.268 456.134Z" fill="#279649"/>
<path d="M338.302 450.925C329.064 445.346 319.752 439.771 310.285 434.588C301.248 429.642 291.614 424.542 282.335 420.084C281.681 419.771 281.714 419.029 280.943 420.046C292.989 428.942 305.277 437.634 317.985 445.555C323.706 449.121 329.973 451.967 335.264 456.13C335.373 456.03 335.489 455.934 335.589 455.829C337.448 453.917 337.481 453.167 338.298 450.925H338.302Z" fill="#036134"/>
<path d="M291.821 483.509C276.759 482.267 261.692 481.517 246.613 481.2C242.888 481.121 237.188 480.254 233.784 480.629C233.267 480.688 232.092 480.754 232.034 481.371C231.95 482.2 247.029 484.042 248.354 484.688C259.675 486.175 270.992 487.563 282.367 488.617C284.825 488.846 289.309 488.404 291.292 488.817C291.788 487.108 292.15 485.296 291.821 483.509Z" fill="#6EBD2F"/>
<path d="M324.393 514.938C323.576 513.521 322.614 512.192 321.418 511.054L305.143 521.896C294.809 529.854 284.447 537.913 274.514 546.442L277.539 545.179C293.718 535.942 309.364 526.025 324.393 514.938Z" fill="#036134"/>
<path d="M282.829 341.983C282.942 339.325 283.792 328.804 284.662 326.963C285.512 325.171 291.287 326.975 293.133 326.125C306.621 328.608 319.95 332.871 330.754 341.571C347.783 355.279 353.192 381.546 345.183 401.633C345.087 401.5 344.417 401.55 344.321 401.417C334.454 387.7 324.233 374.146 313.354 361.117C312.429 360.571 307.95 354.637 307.421 354.958C306.837 355.308 307.746 356.317 307.95 356.654C312.55 364.15 316.996 372.142 321.867 379.479C327.587 388.096 334.337 396.079 339.783 404.862C339.721 404.992 339.733 405.158 339.675 405.296C318.992 406.254 297.008 393.996 288.675 374.762C286.262 369.192 285.267 363.287 284.017 357.4C283.846 356.596 282.696 345.096 282.829 341.992V341.983Z" fill="#AADA38"/>
<path d="M339.788 404.858C334.342 396.079 327.596 388.091 321.871 379.475C317 372.141 312.555 364.146 307.955 356.65C307.746 356.312 306.838 355.308 307.425 354.954C307.959 354.633 312.434 360.571 313.359 361.112C324.234 374.137 334.459 387.691 344.325 401.412C343.888 403.016 340.363 403.691 339.788 404.854V404.858Z" fill="#6EBD2F"/>
<path d="M411.613 449.929C411.8 453.704 411.646 470.167 421.584 483.392C431.521 496.617 410.459 475.487 410.459 475.487C405.784 469.733 407.059 454.712 407.338 449.817C407.613 444.921 411.613 449.925 411.613 449.925V449.929Z" fill="#914F2B"/>
<path d="M407.128 452.075C408.086 447.025 407.811 441.783 408.211 436.654C409.107 425.258 410.67 413.883 412.461 402.596C413.42 402.758 412.907 402.996 412.924 403.55C413.17 411.4 413.103 419.721 412.932 427.579C412.753 435.817 412.249 444.079 411.72 452.3C411.936 452.271 412.92 452.142 413.265 451.967C425.603 445.746 433.561 430.471 434.478 416.958C435.59 400.538 426.549 384.225 414.591 373.558C413.178 373.421 405.261 381.608 403.99 383.092C392.632 396.354 386.082 414.346 391.57 431.508C393.753 438.333 400.153 449.513 407.128 452.071V452.075Z" fill="#279649"/>
<path d="M411.719 452.3C412.248 444.079 412.752 435.812 412.931 427.579C413.102 419.717 413.169 411.4 412.923 403.55C412.906 402.996 413.419 402.758 412.46 402.596C410.673 413.883 409.106 425.262 408.21 436.654C407.806 441.783 408.081 447.029 407.127 452.075C407.231 452.112 407.339 452.158 407.444 452.192C409.394 452.775 409.914 452.537 411.719 452.3Z" fill="#036134"/>
</g>
</svg>
