<svg width="189" height="42" viewBox="0 0 189 42" fill="none" xmlns="http://www.w3.org/2000/svg">
<path d="M167.503 0.206055H21.6693C10.1633 0.206055 0.835938 9.53346 0.835938 21.0394C0.835938 32.5453 10.1633 41.8727 21.6693 41.8727H167.503C179.009 41.8727 188.336 32.5453 188.336 21.0394C188.336 9.53346 179.009 0.206055 167.503 0.206055Z" fill="#02B14F"/>
<path d="M41.4888 17.8896C40.1846 17.8896 39.3596 18.5563 39.3596 19.4604C39.3555 20.4771 40.4596 20.8647 41.2888 21.0772L42.3263 21.348C43.6721 21.6813 45.3805 22.4188 45.3805 24.3313C45.3805 26.1313 43.9471 27.4397 41.4513 27.4397C38.9555 27.4397 37.5846 26.2521 37.4805 24.3313H39.0847C39.1763 25.4854 40.2055 26.0355 41.4388 26.0355C42.8013 26.0355 43.793 25.3522 43.793 24.3147C43.793 23.373 42.918 22.998 41.7805 22.698L40.5263 22.3563C38.8222 21.8938 37.7638 21.0313 37.7638 19.5521C37.7638 17.7229 39.3972 16.5063 41.5263 16.5063C43.6555 16.5063 45.1847 17.7396 45.2305 19.4396H43.6846C43.5721 18.4604 42.7055 17.8896 41.4888 17.8896Z" fill="white"/>
<path d="M48.7062 27.2604H47.1562V16.6479H48.6854V20.5979H48.7854C49.1604 19.7396 49.9062 19.198 51.1437 19.198C52.7812 19.198 53.8687 20.2146 53.8687 22.198V27.2604H52.3188V22.3855C52.3188 21.2188 51.6812 20.5397 50.6146 20.5397C49.5479 20.5397 48.7062 21.2647 48.7062 22.5355V27.2604Z" fill="white"/>
<path d="M55.5647 25.0147C55.5647 23.2063 57.1106 22.8105 58.6147 22.6355C60.0439 22.4689 60.6272 22.4814 60.6272 21.9147V21.8772C60.6272 20.9772 60.1147 20.4522 59.1147 20.4522C58.1147 20.4522 57.4939 20.998 57.2648 21.5605L55.8064 21.2271C56.3231 19.7771 57.6523 19.1938 59.0898 19.1938C60.3523 19.1938 62.1772 19.6563 62.1772 21.973V27.2563H60.6647V26.1688H60.6022C60.3064 26.7647 59.5647 27.4314 58.2481 27.4314C56.7356 27.4314 55.5605 26.573 55.5605 25.0063L55.5647 25.0147ZM60.6314 24.3938V23.3689C60.4064 23.5897 59.2147 23.7272 58.7147 23.7939C57.8189 23.9147 57.0814 24.2105 57.0814 25.0355C57.0814 25.8022 57.7147 26.1979 58.5897 26.1979C59.8814 26.1979 60.6314 25.3397 60.6314 24.3938Z" fill="white"/>
<path d="M64.2383 19.302H65.7341V20.5645H65.8174C66.1091 19.7103 66.905 19.1812 67.8383 19.1812C68.0341 19.1812 68.3424 19.1978 68.4966 19.2186V20.7019C68.3716 20.6644 68.0091 20.6103 67.6882 20.6103C66.5882 20.6103 65.7883 21.3603 65.7883 22.402V27.2644H64.2383V19.3062V19.302Z" fill="white"/>
<path d="M69.1934 23.3354C69.1934 20.8896 70.6558 19.2021 72.8725 19.2021C74.6767 19.2021 76.3975 20.3271 76.3975 23.2021V23.7521H70.7392C70.7808 25.2854 71.6725 26.1479 72.9975 26.1479C73.8766 26.1479 74.5517 25.7646 74.8308 25.0146L76.2975 25.2771C75.9433 26.5729 74.7183 27.4271 72.9808 27.4271C70.635 27.4271 69.1934 25.8105 69.1934 23.3396V23.3354ZM74.8766 22.5896C74.8725 21.3729 74.085 20.4812 72.8808 20.4812C71.6767 20.4812 70.8017 21.4604 70.7392 22.5896H74.8725H74.8766Z" fill="white"/>
<path d="M85.6935 20.548H84.0602V24.9271C84.0602 25.823 84.5102 25.9896 85.0143 25.9896C85.2643 25.9896 85.456 25.9438 85.5602 25.9229L85.8393 27.2021C85.656 27.2688 85.3268 27.3646 84.8352 27.3688C83.6143 27.3938 82.5102 26.6938 82.5143 25.248V20.548H81.3477V19.3063H82.5143V17.3979H84.0643V19.3063H85.6977V20.548H85.6935Z" fill="white"/>
<path d="M89.1125 27.2604H87.5625V16.6479H89.0916V20.5979H89.1917C89.5667 19.7396 90.3125 19.198 91.55 19.198C93.1875 19.198 94.275 20.2146 94.275 22.198V27.2604H92.725V22.3855C92.725 21.2188 92.0875 20.5397 91.0208 20.5397C89.9541 20.5397 89.1125 21.2647 89.1125 22.5355V27.2604Z" fill="white"/>
<path d="M96.1484 17.1523C96.1484 16.644 96.5901 16.2231 97.1276 16.2231C97.6651 16.2231 98.1068 16.644 98.1068 17.1523C98.1068 17.6606 97.6609 18.0731 97.1276 18.0731C96.5943 18.0731 96.1484 17.6565 96.1484 17.1523ZM96.3443 19.3024H97.8942V27.2606H96.3443V19.3024Z" fill="white"/>
<path d="M104.536 21.4941C104.352 20.9607 103.911 20.4274 102.944 20.4274C102.065 20.4274 101.398 20.8607 101.406 21.4732C101.402 22.0107 101.781 22.3066 102.656 22.5149L103.919 22.8065C105.381 23.144 106.094 23.8398 106.094 24.9607C106.094 26.4023 104.761 27.4232 102.84 27.4232C101.052 27.4232 99.8814 26.6316 99.623 25.2191L101.119 24.9899C101.306 25.7732 101.902 26.1732 102.827 26.1732C103.844 26.1732 104.502 25.6898 104.502 25.0732C104.502 24.5773 104.144 24.2357 103.377 24.0649L102.031 23.7691C100.54 23.4357 99.8564 22.6857 99.8564 21.5565C99.8564 20.1482 101.131 19.1982 102.927 19.1982C104.723 19.1982 105.615 20.0065 105.94 21.244L104.536 21.4941Z" fill="white"/>
<path d="M111.293 23.3354C111.293 20.8896 112.756 19.2021 114.972 19.2021C116.776 19.2021 118.497 20.3271 118.497 23.2021V23.7521H112.839C112.881 25.2854 113.772 26.1479 115.097 26.1479C115.976 26.1479 116.651 25.7646 116.931 25.0146L118.397 25.2771C118.043 26.5729 116.818 27.4271 115.081 27.4271C112.735 27.4271 111.293 25.8105 111.293 23.3396V23.3354ZM116.976 22.5896C116.972 21.3729 116.185 20.4812 114.981 20.4812C113.776 20.4812 112.901 21.4604 112.839 22.5896H116.972H116.976Z" fill="white"/>
<path d="M124.006 20.5479H122.289V27.2645H120.735V20.5479H119.506V19.3063H120.735V18.3854C120.735 16.8937 121.839 16.1562 123.098 16.1562C123.723 16.1562 124.177 16.2854 124.393 16.3688L124.031 17.6229C123.885 17.5771 123.656 17.5021 123.335 17.5021C122.577 17.5021 122.289 17.8855 122.289 18.5896V19.3063H124.006V20.5479Z" fill="white"/>
<path d="M129.385 20.5479H127.668V27.2645H126.114V20.5479H124.885V19.3063H126.114V18.3854C126.114 16.8937 127.218 16.1562 128.476 16.1562C129.101 16.1562 129.556 16.2854 129.772 16.3688L129.41 17.6229C129.264 17.5771 129.035 17.5021 128.714 17.5021C127.956 17.5021 127.668 17.8855 127.668 18.5896V19.3063H129.385V20.5479Z" fill="white"/>
<path d="M130.305 23.319C130.305 20.844 131.771 19.1982 134.013 19.1982C136.255 19.1982 137.721 20.8399 137.721 23.319C137.721 25.7982 136.255 27.4232 134.013 27.4232C131.771 27.4232 130.305 25.7815 130.305 23.319ZM136.159 23.3149C136.159 21.7899 135.476 20.4982 134.017 20.4982C132.559 20.4982 131.867 21.794 131.867 23.3149C131.867 24.8357 132.551 26.1232 134.017 26.1232C135.484 26.1232 136.159 24.844 136.159 23.3149Z" fill="white"/>
<path d="M139.443 19.302H140.939V20.5645H141.022C141.314 19.7103 142.11 19.1812 143.043 19.1812C143.239 19.1812 143.548 19.1978 143.702 19.2186V20.7019C143.577 20.6644 143.214 20.6103 142.893 20.6103C141.793 20.6103 140.993 21.3603 140.993 22.402V27.2644H139.443V19.3062V19.302Z" fill="white"/>
<path d="M149.227 20.548H147.593V24.9271C147.593 25.823 148.043 25.9896 148.548 25.9896C148.798 25.9896 148.989 25.9438 149.093 25.9229L149.373 27.2021C149.189 27.2688 148.86 27.3646 148.368 27.3688C147.148 27.3938 146.043 26.6938 146.048 25.248V20.548H144.881V19.3063H146.048V17.3979H147.598V19.3063H149.231V20.548H149.227Z" fill="white"/>
</svg>
