<svg width="188" height="42" viewBox="0 0 188 42" fill="none" xmlns="http://www.w3.org/2000/svg">
<path d="M166.671 0.0341797H20.8372C9.33131 0.0341797 0.00390625 9.36158 0.00390625 20.8675C0.00390625 32.3734 9.33131 41.7008 20.8372 41.7008H166.671C178.176 41.7008 187.504 32.3734 187.504 20.8675C187.504 9.36158 178.176 0.0341797 166.671 0.0341797Z" fill="#02B14F"/>
<path d="M40.6587 17.7177C39.3546 17.7177 38.5296 18.3844 38.5296 19.2886C38.5254 20.3052 39.6296 20.6928 40.4587 20.9053L41.4962 21.1761C42.8421 21.5094 44.5504 22.2469 44.5504 24.1594C44.5504 25.9594 43.1171 27.2678 40.6212 27.2678C38.1254 27.2678 36.7546 26.0802 36.6504 24.1594H38.2546C38.3463 25.3136 39.3754 25.8636 40.6087 25.8636C41.9712 25.8636 42.9629 25.1803 42.9629 24.1428C42.9629 23.2011 42.0879 22.8261 40.9504 22.5261L39.6962 22.1844C37.9921 21.7219 36.9337 20.8594 36.9337 19.3802C36.9337 17.5511 38.5671 16.3345 40.6963 16.3345C42.8254 16.3345 44.3546 17.5677 44.4004 19.2677H42.8546C42.7421 18.2886 41.8754 17.7177 40.6587 17.7177Z" fill="white"/>
<path d="M47.8762 27.0886H46.3262V16.4761H47.8553V20.4261H47.9553C48.3303 19.5677 49.0761 19.0261 50.3136 19.0261C51.9511 19.0261 53.0387 20.0428 53.0387 22.0261V27.0886H51.4887V22.2136C51.4887 21.0469 50.8511 20.3678 49.7845 20.3678C48.7178 20.3678 47.8762 21.0928 47.8762 22.3636V27.0886Z" fill="white"/>
<path d="M54.7346 24.8428C54.7346 23.0345 56.2805 22.6386 57.7847 22.4636C59.2138 22.297 59.7971 22.3095 59.7971 21.7428V21.7053C59.7971 20.8053 59.2846 20.2803 58.2846 20.2803C57.2846 20.2803 56.6638 20.8261 56.4347 21.3886L54.9763 21.0553C55.493 19.6053 56.8222 19.022 58.2597 19.022C59.5222 19.022 61.3471 19.4844 61.3471 21.8011V27.0844H59.8346V25.997H59.7721C59.4763 26.5928 58.7347 27.2595 57.418 27.2595C55.9055 27.2595 54.7305 26.4011 54.7305 24.8345L54.7346 24.8428ZM59.8013 24.222V23.197C59.5763 23.4178 58.3847 23.5553 57.8847 23.622C56.9888 23.7428 56.2513 24.0386 56.2513 24.8636C56.2513 25.6303 56.8846 26.0261 57.7596 26.0261C59.0513 26.0261 59.8013 25.1678 59.8013 24.222Z" fill="white"/>
<path d="M63.4082 19.1301H64.904V20.3926H64.9873C65.279 19.5385 66.0749 19.0093 67.0082 19.0093C67.204 19.0093 67.5124 19.0259 67.6665 19.0467V20.5301C67.5415 20.4926 67.179 20.4384 66.8582 20.4384C65.7582 20.4384 64.9582 21.1884 64.9582 22.2301V27.0926H63.4082V19.1343V19.1301Z" fill="white"/>
<path d="M68.3633 23.1636C68.3633 20.7177 69.8258 19.0303 72.0424 19.0303C73.8466 19.0303 75.5674 20.1552 75.5674 23.0302V23.5802H69.9091C69.9508 25.1136 70.8424 25.9761 72.1674 25.9761C73.0466 25.9761 73.7216 25.5928 74.0007 24.8428L75.4674 25.1052C75.1133 26.401 73.8883 27.2553 72.1508 27.2553C69.8049 27.2553 68.3633 25.6386 68.3633 23.1677V23.1636ZM74.0466 22.4177C74.0424 21.2011 73.2549 20.3094 72.0508 20.3094C70.8466 20.3094 69.9716 21.2886 69.9091 22.4177H74.0424H74.0466Z" fill="white"/>
<path d="M84.8634 20.3761H83.2301V24.7553C83.2301 25.6511 83.6801 25.8177 84.1843 25.8177C84.4343 25.8177 84.6259 25.7719 84.7301 25.7511L85.0093 27.0303C84.8259 27.0969 84.4967 27.1927 84.0051 27.1969C82.7842 27.2219 81.6801 26.5219 81.6843 25.0761V20.3761H80.5176V19.1344H81.6843V17.2261H83.2343V19.1344H84.8676V20.3761H84.8634Z" fill="white"/>
<path d="M88.2844 27.0886H86.7344V16.4761H88.2635V20.4261H88.3636C88.7386 19.5677 89.4844 19.0261 90.7219 19.0261C92.3594 19.0261 93.4469 20.0428 93.4469 22.0261V27.0886H91.8969V22.2136C91.8969 21.0469 91.2593 20.3678 90.1927 20.3678C89.126 20.3678 88.2844 21.0928 88.2844 22.3636V27.0886Z" fill="white"/>
<path d="M95.3164 16.9804C95.3164 16.4721 95.7581 16.0513 96.2956 16.0513C96.8331 16.0513 97.2747 16.4721 97.2747 16.9804C97.2747 17.4888 96.8289 17.9012 96.2956 17.9012C95.7622 17.9012 95.3164 17.4846 95.3164 16.9804ZM95.5122 19.1305H97.0622V27.0888H95.5122V19.1305Z" fill="white"/>
<path d="M103.705 21.3217C103.522 20.7884 103.081 20.255 102.114 20.255C101.235 20.255 100.568 20.6884 100.576 21.3009C100.572 21.8384 100.951 22.1342 101.826 22.3425L103.089 22.6342C104.551 22.9717 105.264 23.6675 105.264 24.7883C105.264 26.23 103.931 27.2509 102.01 27.2509C100.222 27.2509 99.0513 26.4592 98.793 25.0467L100.289 24.8175C100.476 25.6008 101.072 26.0009 101.997 26.0009C103.014 26.0009 103.672 25.5175 103.672 24.9008C103.672 24.405 103.314 24.0634 102.547 23.8925L101.201 23.5967C99.7096 23.2634 99.0263 22.5133 99.0263 21.3842C99.0263 19.9758 100.301 19.0259 102.097 19.0259C103.893 19.0259 104.785 19.8342 105.11 21.0717L103.705 21.3217Z" fill="white"/>
<path d="M110.463 23.1636C110.463 20.7177 111.926 19.0303 114.142 19.0303C115.946 19.0303 117.667 20.1552 117.667 23.0302V23.5802H112.009C112.051 25.1136 112.942 25.9761 114.267 25.9761C115.146 25.9761 115.821 25.5928 116.101 24.8428L117.567 25.1052C117.213 26.401 115.988 27.2553 114.25 27.2553C111.905 27.2553 110.463 25.6386 110.463 23.1677V23.1636ZM116.146 22.4177C116.142 21.2011 115.355 20.3094 114.151 20.3094C112.946 20.3094 112.071 21.2886 112.009 22.4177H116.142H116.146Z" fill="white"/>
<path d="M123.176 20.3761H121.459V27.0927H119.905V20.3761H118.676V19.1344H119.905V18.2135C119.905 16.7218 121.009 15.9844 122.267 15.9844C122.892 15.9844 123.347 16.1135 123.563 16.1969L123.201 17.451C123.055 17.4052 122.826 17.3302 122.505 17.3302C121.747 17.3302 121.459 17.7136 121.459 18.4177V19.1344H123.176V20.3761Z" fill="white"/>
<path d="M128.555 20.3761H126.838V27.0927H125.284V20.3761H124.055V19.1344H125.284V18.2135C125.284 16.7218 126.388 15.9844 127.646 15.9844C128.271 15.9844 128.726 16.1135 128.942 16.1969L128.58 17.451C128.434 17.4052 128.205 17.3302 127.884 17.3302C127.126 17.3302 126.838 17.7136 126.838 18.4177V19.1344H128.555V20.3761Z" fill="white"/>
<path d="M129.475 23.1467C129.475 20.6717 130.941 19.0259 133.183 19.0259C135.425 19.0259 136.891 20.6675 136.891 23.1467C136.891 25.6258 135.425 27.2509 133.183 27.2509C130.941 27.2509 129.475 25.6092 129.475 23.1467ZM135.329 23.1425C135.329 21.6175 134.645 20.3258 133.187 20.3258C131.729 20.3258 131.037 21.6217 131.037 23.1425C131.037 24.6633 131.72 25.9508 133.187 25.9508C134.654 25.9508 135.329 24.6717 135.329 23.1425Z" fill="white"/>
<path d="M138.613 19.1301H140.109V20.3926H140.192C140.484 19.5385 141.28 19.0093 142.213 19.0093C142.409 19.0093 142.717 19.0259 142.872 19.0467V20.5301C142.747 20.4926 142.384 20.4384 142.063 20.4384C140.963 20.4384 140.163 21.1884 140.163 22.2301V27.0926H138.613V19.1343V19.1301Z" fill="white"/>
<path d="M148.397 20.3761H146.763V24.7553C146.763 25.6511 147.213 25.8177 147.717 25.8177C147.967 25.8177 148.159 25.7719 148.263 25.7511L148.542 27.0303C148.359 27.0969 148.03 27.1927 147.538 27.1969C146.317 27.2219 145.213 26.5219 145.217 25.0761V20.3761H144.051V19.1344H145.217V17.2261H146.767V19.1344H148.401V20.3761H148.397Z" fill="white"/>
</svg>
