<svg width="225" height="59" viewBox="0 0 225 59" fill="none" xmlns="http://www.w3.org/2000/svg">
<path d="M195.993 0.670898H29.8306C13.812 0.670898 0.826416 13.6566 0.826416 29.6751C0.826416 45.6937 13.812 58.6793 29.8306 58.6793H195.993C212.012 58.6793 224.997 45.6937 224.997 29.6751C224.997 13.6566 212.012 0.670898 195.993 0.670898Z" fill="#A0D92A"/>
<path d="M38.3229 16.6871C37.0187 16.6871 36.1937 17.3537 36.1937 18.2579C36.1896 19.2746 37.2937 19.662 38.1229 19.8745L39.1604 20.1453C40.5062 20.4787 42.2146 21.2162 42.2146 23.1287C42.2146 24.9287 40.7813 26.237 38.2854 26.237C35.7896 26.237 34.4187 25.0496 34.3146 23.1287H35.9187C36.0104 24.2829 37.0396 24.8328 38.2729 24.8328C39.6354 24.8328 40.6271 24.1495 40.6271 23.112C40.6271 22.1704 39.7521 21.7953 38.6146 21.4953L37.3604 21.1537C35.6562 20.6912 34.5979 19.8287 34.5979 18.3496C34.5979 16.5204 36.2312 15.3037 38.3604 15.3037C40.4896 15.3037 42.0187 16.5371 42.0646 18.2371H40.5187C40.4062 17.2579 39.5396 16.6871 38.3229 16.6871Z" fill="#005339"/>
<path d="M45.5403 26.0588H43.9904V15.4463H45.5195V19.3963H45.6195C45.9945 18.5379 46.7404 17.9962 47.9779 17.9962C49.6154 17.9962 50.7029 19.0129 50.7029 20.9962V26.0588H49.1529V21.1837C49.1529 20.017 48.5154 19.3379 47.4487 19.3379C46.382 19.3379 45.5403 20.0629 45.5403 21.3337V26.0588Z" fill="#005339"/>
<path d="M52.3988 23.8081C52.3988 21.9998 53.9446 21.604 55.4488 21.429C56.878 21.2623 57.4613 21.2748 57.4613 20.7082V20.6706C57.4613 19.7706 56.9488 19.2456 55.9488 19.2456C54.9488 19.2456 54.328 19.7914 54.0988 20.3539L52.6405 20.0207C53.1571 18.5707 54.4863 17.9873 55.9238 17.9873C57.1863 17.9873 59.0113 18.4498 59.0113 20.7664V26.0498H57.4988V24.9623H57.4363C57.1405 25.5581 56.3988 26.2248 55.0821 26.2248C53.5696 26.2248 52.3947 25.3665 52.3947 23.7998L52.3988 23.8081ZM57.4655 23.1873V22.1623C57.2405 22.3831 56.0488 22.5207 55.5488 22.5873C54.653 22.7082 53.9155 23.004 53.9155 23.829C53.9155 24.5956 54.5488 24.9915 55.4238 24.9915C56.7155 24.9915 57.4655 24.1331 57.4655 23.1873Z" fill="#005339"/>
<path d="M61.0685 18.1003H62.5643V19.3629H62.6477C62.9393 18.5087 63.7352 17.9795 64.6685 17.9795C64.8643 17.9795 65.1726 17.9962 65.3268 18.017V19.5004C65.2018 19.4629 64.8393 19.4087 64.5185 19.4087C63.4185 19.4087 62.6185 20.1587 62.6185 21.2003V26.0629H61.0685V18.1045V18.1003Z" fill="#005339"/>
<path d="M66.0275 22.1294C66.0275 19.6836 67.4899 17.9961 69.7066 17.9961C71.5108 17.9961 73.2316 19.1211 73.2316 21.9961V22.5461H67.5733C67.6149 24.0794 68.5066 24.9419 69.8316 24.9419C70.7108 24.9419 71.3858 24.5586 71.665 23.8086L73.1317 24.0711C72.7775 25.367 71.5525 26.2211 69.815 26.2211C67.4691 26.2211 66.0275 24.6044 66.0275 22.1336V22.1294ZM71.7108 21.3836C71.7066 20.167 70.9191 19.2753 69.715 19.2753C68.5108 19.2753 67.6358 20.2545 67.5733 21.3836H71.7066H71.7108Z" fill="#005339"/>
<path d="M78.7356 28.8707L79.1065 27.5999C79.9565 27.8332 80.5106 27.7458 80.9065 26.6874L81.0982 26.1582L78.1857 18.0957H79.844L81.8606 24.2707H81.944L83.9607 18.0957H85.6232L82.344 27.1166C81.8815 28.3708 81.0732 29.0374 79.794 29.0374C79.3273 29.0374 78.9231 28.9499 78.7356 28.8666V28.8707Z" fill="#005339"/>
<path d="M86.4357 22.117C86.4357 19.642 87.9023 17.9961 90.144 17.9961C92.3857 17.9961 93.8524 19.6378 93.8524 22.117C93.8524 24.5962 92.3857 26.2211 90.144 26.2211C87.9023 26.2211 86.4357 24.5795 86.4357 22.117ZM92.2899 22.1128C92.2899 20.5878 91.6065 19.2961 90.1482 19.2961C88.6898 19.2961 87.9982 20.592 87.9982 22.1128C87.9982 23.6336 88.6815 24.9211 90.1482 24.9211C91.6148 24.9211 92.2899 23.642 92.2899 22.1128Z" fill="#005339"/>
<path d="M100.614 18.1006H102.169V26.059H100.644V24.6798H100.56C100.194 25.5298 99.3769 26.1631 98.1811 26.1631C96.6519 26.1631 95.5686 25.138 95.5686 23.163V18.1006H97.1186V22.9756C97.1186 24.0589 97.7811 24.7547 98.7394 24.7547C99.6103 24.7547 100.614 24.1131 100.61 22.7589V18.1006H100.614Z" fill="#005339"/>
<path d="M104.244 18.1003H105.74V19.3629H105.823C106.115 18.5087 106.911 17.9795 107.844 17.9795C108.04 17.9795 108.348 17.9962 108.503 18.017V19.5004C108.378 19.4629 108.015 19.4087 107.694 19.4087C106.594 19.4087 105.794 20.1587 105.794 21.2003V26.0629H104.244V18.1045V18.1003Z" fill="#005339"/>
<path d="M118.268 20.2919C118.085 19.7586 117.643 19.2252 116.676 19.2252C115.797 19.2252 115.131 19.6586 115.139 20.2711C115.135 20.8086 115.514 21.1044 116.389 21.3127L117.651 21.6044C119.114 21.9419 119.826 22.6378 119.826 23.7586C119.826 25.2003 118.493 26.2211 116.572 26.2211C114.785 26.2211 113.614 25.4294 113.356 24.0169L114.851 23.7877C115.039 24.5711 115.635 24.9711 116.56 24.9711C117.576 24.9711 118.235 24.4878 118.235 23.8711C118.235 23.3753 117.876 23.0336 117.11 22.8627L115.764 22.5669C114.272 22.2336 113.589 21.4836 113.589 20.3544C113.589 18.9461 114.864 17.9961 116.66 17.9961C118.456 17.9961 119.347 18.8044 119.672 20.0419L118.268 20.2919Z" fill="#005339"/>
<path d="M126.564 18.1006H128.118V26.059H126.593V24.6798H126.509C126.143 25.5298 125.326 26.1631 124.13 26.1631C122.601 26.1631 121.518 25.138 121.518 23.163V18.1006H123.068V22.9756C123.068 24.0589 123.73 24.7547 124.689 24.7547C125.559 24.7547 126.564 24.1131 126.559 22.7589V18.1006H126.564Z" fill="#005339"/>
<path d="M130.193 18.1003H131.706V19.392H131.835C132.11 18.9003 132.643 17.9961 134.118 17.9961C136.039 17.9961 137.46 19.5128 137.46 22.0961C137.46 24.6795 136.06 26.2169 134.135 26.2169C132.685 26.2169 132.114 25.3295 131.835 24.8211H131.743V29.0461H130.193V18.1044V18.1003ZM133.789 24.8919C135.173 24.8919 135.898 23.6753 135.898 22.0794C135.898 20.4836 135.193 19.3127 133.789 19.3127C132.385 19.3127 131.71 20.4169 131.71 22.0794C131.71 23.7419 132.456 24.8919 133.789 24.8919Z" fill="#005339"/>
<path d="M139.193 18.1003H140.706V19.392H140.835C141.11 18.9003 141.643 17.9961 143.118 17.9961C145.039 17.9961 146.46 19.5128 146.46 22.0961C146.46 24.6795 145.06 26.2169 143.135 26.2169C141.685 26.2169 141.114 25.3295 140.835 24.8211H140.743V29.0461H139.193V18.1044V18.1003ZM142.789 24.8919C144.173 24.8919 144.898 23.6753 144.898 22.0794C144.898 20.4836 144.193 19.3127 142.789 19.3127C141.385 19.3127 140.71 20.4169 140.71 22.0794C140.71 23.7419 141.456 24.8919 142.789 24.8919Z" fill="#005339"/>
<path d="M147.834 22.117C147.834 19.642 149.301 17.9961 151.542 17.9961C153.784 17.9961 155.251 19.6378 155.251 22.117C155.251 24.5962 153.784 26.2211 151.542 26.2211C149.301 26.2211 147.834 24.5795 147.834 22.117ZM153.688 22.1128C153.688 20.5878 153.005 19.2961 151.547 19.2961C150.088 19.2961 149.397 20.592 149.397 22.1128C149.397 23.6336 150.08 24.9211 151.547 24.9211C153.013 24.9211 153.688 23.642 153.688 22.1128Z" fill="#005339"/>
<path d="M156.977 18.1003H158.473V19.3629H158.556C158.847 18.5087 159.643 17.9795 160.577 17.9795C160.773 17.9795 161.081 17.9962 161.235 18.017V19.5004C161.11 19.4629 160.748 19.4087 160.427 19.4087C159.327 19.4087 158.527 20.1587 158.527 21.2003V26.0629H156.977V18.1045V18.1003Z" fill="#005339"/>
<path d="M166.76 19.3424H165.127V23.7216C165.127 24.6174 165.577 24.7841 166.081 24.7841C166.331 24.7841 166.523 24.7383 166.627 24.7175L166.906 25.9966C166.723 26.0632 166.393 26.1591 165.902 26.1633C164.681 26.1883 163.577 25.4883 163.581 24.0424V19.3424H162.414V18.1007H163.581V16.1924H165.131V18.1007H166.764V19.3424H166.76Z" fill="#005339"/>
<path d="M176.119 19.3419H174.403V26.0586H172.848V19.3419H171.619V18.1002H172.848V17.1794C172.848 15.6877 173.953 14.9502 175.211 14.9502C175.836 14.9502 176.29 15.0794 176.507 15.1627L176.144 16.4169C175.998 16.371 175.769 16.296 175.448 16.296C174.69 16.296 174.403 16.6794 174.403 17.3836V18.1002H176.119V19.3419Z" fill="#005339"/>
<path d="M177.035 22.117C177.035 19.642 178.502 17.9961 180.743 17.9961C182.985 17.9961 184.452 19.6378 184.452 22.117C184.452 24.5962 182.985 26.2211 180.743 26.2211C178.502 26.2211 177.035 24.5795 177.035 22.117ZM182.889 22.1128C182.889 20.5878 182.206 19.2961 180.748 19.2961C179.289 19.2961 178.598 20.592 178.598 22.1128C178.598 23.6336 179.281 24.9211 180.748 24.9211C182.214 24.9211 182.889 23.642 182.889 22.1128Z" fill="#005339"/>
<path d="M186.178 18.1003H187.674V19.3629H187.757C188.049 18.5087 188.845 17.9795 189.778 17.9795C189.974 17.9795 190.282 17.9962 190.436 18.017V19.5004C190.311 19.4629 189.949 19.4087 189.628 19.4087C188.528 19.4087 187.728 20.1587 187.728 21.2003V26.0629H186.178V18.1045V18.1003Z" fill="#005339"/>
<path d="M40.2522 37.3541H38.6189V41.7333C38.6189 42.6291 39.0689 42.7958 39.5731 42.7958C39.8231 42.7958 40.0147 42.75 40.1189 42.7292L40.3981 44.0083C40.2147 44.0749 39.8855 44.1708 39.3939 44.175C38.173 44.2 37.0689 43.5 37.0731 42.0541V37.3541H35.9064V36.1125H37.0731V34.2041H38.623V36.1125H40.2564V37.3541H40.2522Z" fill="#005339"/>
<path d="M43.6732 44.0705H42.1232V33.458H43.6524V37.408H43.7523C44.1273 36.5497 44.8731 36.008 46.1106 36.008C47.7481 36.008 48.8357 37.0246 48.8357 39.0079V44.0705H47.2857V39.1955C47.2857 38.0288 46.6482 37.3496 45.5815 37.3496C44.5149 37.3496 43.6732 38.0746 43.6732 39.3455V44.0705Z" fill="#005339"/>
<path d="M50.5431 40.1421C50.5431 37.6963 52.0056 36.0088 54.2223 36.0088C56.0265 36.0088 57.7473 37.1338 57.7473 40.0088V40.5588H52.089C52.1306 42.0921 53.0223 42.9546 54.3473 42.9546C55.2264 42.9546 55.9014 42.5713 56.1806 41.8213L57.6473 42.0838C57.2931 43.3797 56.0681 44.2338 54.3306 44.2338C51.9848 44.2338 50.5431 42.6171 50.5431 40.1463V40.1421ZM56.2264 39.3963C56.2223 38.1797 55.4347 37.288 54.2306 37.288C53.0264 37.288 52.1515 38.2672 52.089 39.3963H56.2223H56.2264Z" fill="#005339"/>
<path d="M67.872 34.775C66.072 34.775 64.7011 36.1875 64.7011 38.7584C64.7011 41.3292 66.0636 42.7541 67.9345 42.7541C69.6345 42.7541 70.7636 41.6708 70.8011 39.9625H68.1803V38.6417H72.3512V39.85C72.3512 42.5291 70.5095 44.2166 67.9345 44.2166C65.0595 44.2166 63.1095 42.1292 63.1095 38.7709C63.1095 35.4125 65.1137 33.3125 67.8595 33.3125C70.1512 33.3125 71.9178 34.7416 72.2762 36.8083H70.6345C70.2345 35.55 69.2804 34.7708 67.872 34.7708V34.775Z" fill="#005339"/>
<path d="M74.2521 36.113H75.7479V37.3755H75.8313C76.1229 36.5214 76.9187 35.9922 77.8521 35.9922C78.0479 35.9922 78.3562 36.0089 78.5104 36.0297V37.5131C78.3854 37.4756 78.0229 37.4214 77.7021 37.4214C76.6021 37.4214 75.8021 38.1713 75.8021 39.213V44.0756H74.2521V36.1172V36.113Z" fill="#005339"/>
<path d="M79.2072 40.1421C79.2072 37.6963 80.6696 36.0088 82.8863 36.0088C84.6905 36.0088 86.4113 37.1338 86.4113 40.0088V40.5588H80.753C80.7946 42.0921 81.6863 42.9546 83.0113 42.9546C83.8905 42.9546 84.5655 42.5713 84.8447 41.8213L86.3113 42.0838C85.9572 43.3797 84.7321 44.2338 82.9946 44.2338C80.6488 44.2338 79.2072 42.6171 79.2072 40.1463V40.1421ZM84.8905 39.3963C84.8863 38.1797 84.0988 37.288 82.8946 37.288C81.6905 37.288 80.8155 38.2672 80.753 39.3963H84.8863H84.8905Z" fill="#005339"/>
<path d="M87.7736 40.1421C87.7736 37.6963 89.2361 36.0088 91.4528 36.0088C93.2569 36.0088 94.9777 37.1338 94.9777 40.0088V40.5588H89.3194C89.3611 42.0921 90.2527 42.9546 91.5777 42.9546C92.4569 42.9546 93.1319 42.5713 93.4111 41.8213L94.8777 42.0838C94.5236 43.3797 93.2986 44.2338 91.5611 44.2338C89.2153 44.2338 87.7736 42.6171 87.7736 40.1463V40.1421ZM93.4569 39.3963C93.4527 38.1797 92.6653 37.288 91.4611 37.288C90.2569 37.288 89.3819 38.2672 89.3194 39.3963H93.4527H93.4569Z" fill="#005339"/>
<path d="M98.2435 44.0713H96.6935V36.113H98.181V37.4088H98.281C98.6477 36.563 99.431 36.0088 100.627 36.0088C102.256 36.0088 103.335 37.0379 103.335 39.0088V44.0713H101.785V39.1964C101.785 38.0422 101.148 37.3504 100.098 37.3504C99.0477 37.3504 98.2435 38.0755 98.2435 39.3463V44.0713Z" fill="#005339"/>
<path d="M109.393 33.458H113.176C115.643 33.458 116.851 34.9413 116.851 36.8955C116.851 38.8497 115.634 40.3413 113.172 40.3413H110.997V44.0705H109.397V33.458H109.393ZM113.026 38.983C114.593 38.983 115.239 38.0955 115.239 36.8955C115.239 35.6955 114.593 34.8329 113.005 34.8329H110.993V38.983H113.026Z" fill="#005339"/>
<path d="M118.59 36.113H120.086V37.3755H120.169C120.461 36.5214 121.257 35.9922 122.19 35.9922C122.386 35.9922 122.694 36.0089 122.848 36.0297V37.5131C122.723 37.4756 122.361 37.4214 122.04 37.4214C120.94 37.4214 120.14 38.1713 120.14 39.213V44.0756H118.59V36.1172V36.113Z" fill="#005339"/>
<path d="M123.543 40.1258C123.543 37.6508 125.01 36.0049 127.251 36.0049C129.493 36.0049 130.96 37.6466 130.96 40.1258C130.96 42.6049 129.493 44.2299 127.251 44.2299C125.01 44.2299 123.543 42.5883 123.543 40.1258ZM129.397 40.1216C129.397 38.5966 128.714 37.3049 127.256 37.3049C125.797 37.3049 125.106 38.6008 125.106 40.1216C125.106 41.6424 125.789 42.9299 127.256 42.9299C128.722 42.9299 129.397 41.6508 129.397 40.1216Z" fill="#005339"/>
<path d="M132.64 45.4174L133.973 44.8674C134.248 45.3216 134.752 45.9716 136.04 45.9716C137.215 45.9716 138.073 45.4341 138.073 44.1841V42.6174H137.973C137.694 43.1258 137.127 43.9507 135.669 43.9507C133.79 43.9507 132.344 42.5965 132.344 40.059C132.344 37.5215 133.761 36.0049 135.681 36.0049C137.165 36.0049 137.715 36.9049 137.986 37.4008H138.098V36.109H139.615V44.2424C139.615 46.2882 138.052 47.2174 136.023 47.2174C134.123 47.2174 133.061 46.3882 132.64 45.4132V45.4174ZM138.085 40.0382C138.085 38.4257 137.361 37.3216 136.006 37.3216C134.652 37.3216 133.902 38.509 133.902 40.0382C133.902 41.5674 134.623 42.6632 136.006 42.6632C137.39 42.6632 138.085 41.6799 138.085 40.0382Z" fill="#005339"/>
<path d="M141.686 36.113H143.182V37.3755H143.265C143.557 36.5214 144.352 35.9922 145.286 35.9922C145.482 35.9922 145.79 36.0089 145.944 36.0297V37.5131C145.819 37.4756 145.457 37.4214 145.136 37.4214C144.036 37.4214 143.236 38.1713 143.236 39.213V44.0756H141.686V36.1172V36.113Z" fill="#005339"/>
<path d="M146.844 41.8208C146.844 40.0125 148.39 39.6167 149.894 39.4417C151.323 39.275 151.907 39.2875 151.907 38.7208V38.6833C151.907 37.7833 151.394 37.2583 150.394 37.2583C149.394 37.2583 148.773 37.8042 148.544 38.3667L147.086 38.0334C147.602 36.5834 148.932 36 150.369 36C151.632 36 153.457 36.4626 153.457 38.7792V44.0625H151.944V42.975H151.882C151.586 43.5708 150.844 44.2375 149.527 44.2375C148.015 44.2375 146.84 43.3791 146.84 41.8125L146.844 41.8208ZM151.911 41.2V40.175C151.686 40.3958 150.494 40.5333 149.994 40.6C149.098 40.7208 148.361 41.0167 148.361 41.8417C148.361 42.6083 148.994 43.0042 149.869 43.0042C151.161 43.0042 151.911 42.1458 151.911 41.2Z" fill="#005339"/>
<path d="M155.52 36.113H157.007V37.4088H157.107C157.44 36.5338 158.22 36.0088 159.274 36.0088C160.328 36.0088 161.065 36.538 161.415 37.4088H161.499C161.882 36.5588 162.745 36.0088 163.886 36.0088C165.328 36.0088 166.34 36.9171 166.34 38.7338V44.0713H164.79V38.8797C164.79 37.8005 164.115 37.3463 163.299 37.3463C162.29 37.3463 161.703 38.0421 161.703 39.0004V44.0713H160.157V38.7797C160.157 37.913 159.561 37.3463 158.703 37.3463C157.845 37.3463 157.07 38.0922 157.07 39.1672V44.0755H155.52V36.1171V36.113Z" fill="#005339"/>
<path d="M168.402 36.113H169.89V37.4088H169.99C170.323 36.5338 171.102 36.0088 172.156 36.0088C173.211 36.0088 173.948 36.538 174.298 37.4088H174.381C174.765 36.5588 175.627 36.0088 176.769 36.0088C178.211 36.0088 179.223 36.9171 179.223 38.7338V44.0713H177.673V38.8797C177.673 37.8005 176.998 37.3463 176.181 37.3463C175.173 37.3463 174.586 38.0421 174.586 39.0004V44.0713H173.04V38.7797C173.04 37.913 172.444 37.3463 171.586 37.3463C170.727 37.3463 169.952 38.0922 169.952 39.1672V44.0755H168.402V36.1171V36.113Z" fill="#005339"/>
<path d="M180.926 40.1421C180.926 37.6963 182.388 36.0088 184.605 36.0088C186.409 36.0088 188.13 37.1338 188.13 40.0088V40.5588H182.472C182.513 42.0921 183.405 42.9546 184.73 42.9546C185.609 42.9546 186.284 42.5713 186.563 41.8213L188.03 42.0838C187.676 43.3797 186.451 44.2338 184.713 44.2338C182.368 44.2338 180.926 42.6171 180.926 40.1463V40.1421ZM186.609 39.3963C186.605 38.1797 185.818 37.288 184.613 37.288C183.409 37.288 182.534 38.2672 182.472 39.3963H186.605H186.609Z" fill="#005339"/>
</svg>
